<?xml version="1.0" encoding="UTF-8" standalone="no"?><svg xmlns="http://www.w3.org/2000/svg" xmlns:xlink="http://www.w3.org/1999/xlink" contentScriptType="application/ecmascript" contentStyleType="text/css" height="649px" preserveAspectRatio="none" style="width:1273px;height:649px;background:#FFFFFF;" version="1.1" viewBox="0 0 1273 649" width="1273px" zoomAndPan="magnify"><defs><filter height="300%" id="fryxebi1j7yfh" width="300%" x="-1" y="-1"><feGaussianBlur result="blurOut" stdDeviation="2.0"/><feColorMatrix in="blurOut" result="blurOut2" type="matrix" values="0 0 0 0 0 0 0 0 0 0 0 0 0 0 0 0 0 0 .4 0"/><feOffset dx="4.0" dy="4.0" in="blurOut2" result="blurOut3"/><feBlend in="SourceGraphic" in2="blurOut3" mode="normal"/></filter></defs><g><!--MD5=[73145e46247802284b2f7aaef1fa1797]
class Set--><rect fill="#F8F8F8" filter="url(#fryxebi1j7yfh)" height="26" id="Set" rx="7.5" ry="7.5" style="stroke:#383838;stroke-width:1.5;" width="36" x="252" y="7"/><text fill="#000000" font-family="monospace" font-size="16" lengthAdjust="spacing" textLength="30" x="255" y="24.8">Set</text><!--MD5=[a50ece271047a50033a5c7ed145d7ea6]
class Ideal{T}--><rect fill="#F8F8F8" filter="url(#fryxebi1j7yfh)" height="26" id="Ideal{T}" rx="7.5" ry="7.5" style="stroke:#383838;stroke-width:1.5;" width="86" x="56" y="93"/><text fill="#000000" font-family="monospace" font-size="16" lengthAdjust="spacing" textLength="80" x="59" y="110.8">Ideal{T}</text><!--MD5=[41314a0efc36828092cff9ebad2fcafd]
class Group--><rect fill="#F8F8F8" filter="url(#fryxebi1j7yfh)" height="26" id="Group" rx="7.5" ry="7.5" style="stroke:#383838;stroke-width:1.5;" width="56" x="177" y="93"/><text fill="#000000" font-family="monospace" font-size="16" lengthAdjust="spacing" textLength="50" x="180" y="110.8">Group</text><!--MD5=[b2f8fc17ae331ed04f25127908157045]
class AbstractPermutationGroup--><rect fill="#F8F8F8" filter="url(#fryxebi1j7yfh)" height="26" id="AbstractPermutationGroup" rx="7.5" ry="7.5" style="stroke:#383838;stroke-width:1.5;" width="246" x="7" y="179"/><text fill="#000000" font-family="monospace" font-size="16" lengthAdjust="spacing" textLength="240" x="10" y="196.8">AbstractPermutationGroup</text><!--MD5=[5bddd8b46c26e165d26b282d465b95a8]
class AdditiveGroup--><rect fill="#F8F8F8" filter="url(#fryxebi1j7yfh)" height="26" id="AdditiveGroup" rx="7.5" ry="7.5" style="stroke:#383838;stroke-width:1.5;" width="136" x="268" y="93"/><text fill="#000000" font-family="monospace" font-size="16" lengthAdjust="spacing" textLength="130" x="271" y="110.8">AdditiveGroup</text><!--MD5=[e3f487cfc7ed304a72cda62453eb4068]
class Module{T}--><rect fill="#F8F8F8" filter="url(#fryxebi1j7yfh)" height="26" id="Module{T}" rx="7.5" ry="7.5" style="stroke:#383838;stroke-width:1.5;" width="96" x="288" y="179"/><text fill="#000000" font-family="monospace" font-size="16" lengthAdjust="spacing" textLength="90" x="291" y="196.8">Module{T}</text><!--MD5=[e557bcd0cc90c946a0c53be0234dcb5c]
class FPModule{T}--><rect fill="#F8F8F8" filter="url(#fryxebi1j7yfh)" height="26" id="FPModule{T}" rx="7.5" ry="7.5" style="stroke:#383838;stroke-width:1.5;" width="116" x="127" y="265"/><text fill="#000000" font-family="monospace" font-size="16" lengthAdjust="spacing" textLength="110" x="130" y="282.8">FPModule{T}</text><!--MD5=[7e83e4cda25fdf8cd023ad6aa25bce7b]
class MatSpace{T}--><rect fill="#F8F8F8" filter="url(#fryxebi1j7yfh)" height="26" id="MatSpace{T}" rx="7.5" ry="7.5" style="stroke:#383838;stroke-width:1.5;" width="116" x="278" y="265"/><text fill="#000000" font-family="monospace" font-size="16" lengthAdjust="spacing" textLength="110" x="281" y="282.8">MatSpace{T}</text><!--MD5=[bbf50daa07d2d91e59f473396f280904]
class NCRing--><rect fill="#F8F8F8" filter="url(#fryxebi1j7yfh)" height="26" id="NCRing" rx="7.5" ry="7.5" style="stroke:#383838;stroke-width:1.5;" width="66" x="550" y="93"/><text fill="#000000" font-family="monospace" font-size="16" lengthAdjust="spacing" textLength="60" x="553" y="110.8">NCRing</text><!--MD5=[92046d790d6705f3ef44c0fa084e960c]
class MatAlgebra{T}--><rect fill="#F8F8F8" filter="url(#fryxebi1j7yfh)" height="26" id="MatAlgebra{T}" rx="7.5" ry="7.5" style="stroke:#383838;stroke-width:1.5;" width="136" x="429" y="265"/><text fill="#000000" font-family="monospace" font-size="16" lengthAdjust="spacing" textLength="130" x="432" y="282.8">MatAlgebra{T}</text><!--MD5=[642539ca4e684886b806882765df101e]
class NCPolyRing{T}--><rect fill="#F8F8F8" filter="url(#fryxebi1j7yfh)" height="26" id="NCPolyRing{T}" rx="7.5" ry="7.5" style="stroke:#383838;stroke-width:1.5;" width="136" x="600" y="265"/><text fill="#000000" font-family="monospace" font-size="16" lengthAdjust="spacing" textLength="130" x="603" y="282.8">NCPolyRing{T}</text><!--MD5=[3fdda2b21354ce4f4119709bccb2aac0]
class Ring--><rect fill="#F8F8F8" filter="url(#fryxebi1j7yfh)" height="26" id="Ring" rx="7.5" ry="7.5" style="stroke:#383838;stroke-width:1.5;" width="46" x="821" y="179"/><text fill="#000000" font-family="monospace" font-size="16" lengthAdjust="spacing" textLength="40" x="824" y="196.8">Ring</text><!--MD5=[d9427b671d7d049aff2d6f2fe36a13b3]
class Field--><rect fill="#F8F8F8" filter="url(#fryxebi1j7yfh)" height="26" id="Field" rx="7.5" ry="7.5" style="stroke:#383838;stroke-width:1.5;" width="56" x="761" y="437"/><text fill="#000000" font-family="monospace" font-size="16" lengthAdjust="spacing" textLength="50" x="764" y="454.8">Field</text><!--MD5=[d82769b5523c4ca2f36a57dfee73417a]
class PolyRing{T}--><rect fill="#F8F8F8" filter="url(#fryxebi1j7yfh)" height="26" id="PolyRing{T}" rx="7.5" ry="7.5" style="stroke:#383838;stroke-width:1.5;" width="116" x="874" y="265"/><text fill="#000000" font-family="monospace" font-size="16" lengthAdjust="spacing" textLength="110" x="877" y="282.8">PolyRing{T}</text><!--MD5=[2d8accf6691e94c23cd5e6e74288677b]
class LaurentPolynomialRing{T}--><rect fill="#F8F8F8" filter="url(#fryxebi1j7yfh)" height="26" id="LaurentPolynomialRing{T}" rx="7.5" ry="7.5" style="stroke:#383838;stroke-width:1.5;" width="246" x="842" y="351"/><text fill="#000000" font-family="monospace" font-size="16" lengthAdjust="spacing" textLength="240" x="845" y="368.8">LaurentPolynomialRing{T}</text><!--MD5=[b9d795d569a206fe0b5fabc1e98b0007]
class SeriesRing{T}--><rect fill="#F8F8F8" filter="url(#fryxebi1j7yfh)" height="26" id="SeriesRing{T}" rx="7.5" ry="7.5" style="stroke:#383838;stroke-width:1.5;" width="136" x="1123" y="351"/><text fill="#000000" font-family="monospace" font-size="16" lengthAdjust="spacing" textLength="130" x="1126" y="368.8">SeriesRing{T}</text><!--MD5=[899b8bcbf1260018a5955ea06bbcb504]
class ResRing{T}--><rect fill="#F8F8F8" filter="url(#fryxebi1j7yfh)" height="26" id="ResRing{T}" rx="7.5" ry="7.5" style="stroke:#383838;stroke-width:1.5;" width="106" x="1025" y="265"/><text fill="#000000" font-family="monospace" font-size="16" lengthAdjust="spacing" textLength="100" x="1028" y="282.8">ResRing{T}</text><!--MD5=[7fb534e95feb034fb595bde41408e682]
class ResField{T}--><rect fill="#F8F8F8" filter="url(#fryxebi1j7yfh)" height="26" id="ResField{T}" rx="7.5" ry="7.5" style="stroke:#383838;stroke-width:1.5;" width="116" x="502" y="523"/><text fill="#000000" font-family="monospace" font-size="16" lengthAdjust="spacing" textLength="110" x="505" y="540.8">ResField{T}</text><!--MD5=[528eccac96f8f000fa47cb7e4ce5b262]
class NumField{T}--><rect fill="#F8F8F8" filter="url(#fryxebi1j7yfh)" height="26" id="NumField{T}" rx="7.5" ry="7.5" style="stroke:#383838;stroke-width:1.5;" width="116" x="653" y="523"/><text fill="#000000" font-family="monospace" font-size="16" lengthAdjust="spacing" textLength="110" x="656" y="540.8">NumField{T}</text><!--MD5=[7ef7fc126e4330489ddcfed3d0616cdd]
class SimpleNumField{T}--><rect fill="#F8F8F8" filter="url(#fryxebi1j7yfh)" height="26" id="SimpleNumField{T}" rx="7.5" ry="7.5" style="stroke:#383838;stroke-width:1.5;" width="176" x="623" y="609"/><text fill="#000000" font-family="monospace" font-size="16" lengthAdjust="spacing" textLength="170" x="626" y="626.8">SimpleNumField{T}</text><!--MD5=[9eef3a6268ea392df4f0c2b788eed959]
class FracField{T}--><rect fill="#F8F8F8" filter="url(#fryxebi1j7yfh)" height="26" id="FracField{T}" rx="7.5" ry="7.5" style="stroke:#383838;stroke-width:1.5;" width="126" x="804" y="523"/><text fill="#000000" font-family="monospace" font-size="16" lengthAdjust="spacing" textLength="120" x="807" y="540.8">FracField{T}</text><!--MD5=[5b1faddfaf731239732441a3bb5e723b]
class FinField--><rect fill="#F8F8F8" filter="url(#fryxebi1j7yfh)" height="26" id="FinField" rx="7.5" ry="7.5" style="stroke:#383838;stroke-width:1.5;" width="86" x="965" y="523"/><text fill="#000000" font-family="monospace" font-size="16" lengthAdjust="spacing" textLength="80" x="968" y="540.8">FinField</text><!--MD5=[b3ce388b75fffad23f925fa79fabb0da]
link Set to Ideal{T}--><path codeLine="8" d="M251.7,29.99 C222.1,44.53 163.46,73.33 128.09,90.71 " fill="none" id="Set-to-Ideal{T}" style="stroke:#A9A9A9;stroke-width:1.0;"/><polygon fill="#A9A9A9" points="123.47,92.98,133.3118,92.6083,127.9592,90.7783,129.7891,85.4256,123.47,92.98" style="stroke:#A9A9A9;stroke-width:1.0;"/><!--MD5=[6e6f37fbd02e7314eafd606d2a987209]
link Set to Group--><path codeLine="11" d="M260.69,33.04 C249.39,47.63 230.3,72.3 217.67,88.62 " fill="none" id="Set-to-Group" style="stroke:#A9A9A9;stroke-width:1.0;"/><polygon fill="#A9A9A9" points="214.3,92.99,222.9677,88.3133,217.3568,89.0333,216.6369,83.4224,214.3,92.99" style="stroke:#A9A9A9;stroke-width:1.0;"/><!--MD5=[7227fc0a7c2ddf53f3122c02023fff0c]
link Group to AbstractPermutationGroup--><path codeLine="12" d="M194.25,119.04 C181.11,133.76 158.82,158.72 144.25,175.04 " fill="none" id="Group-to-AbstractPermutationGroup" style="stroke:#A9A9A9;stroke-width:1.0;"/><polygon fill="#A9A9A9" points="140.73,178.99,149.7076,174.9399,144.0598,175.2601,143.7397,169.6123,140.73,178.99" style="stroke:#A9A9A9;stroke-width:1.0;"/><!--MD5=[4f3dcf8caf588563ea752af81c451db4]
link Set to AdditiveGroup--><path codeLine="15" d="M279.46,33.04 C291.02,47.76 310.64,72.72 323.46,89.04 " fill="none" id="Set-to-AdditiveGroup" style="stroke:#A9A9A9;stroke-width:1.0;"/><polygon fill="#A9A9A9" points="326.56,92.99,324.125,83.4469,323.4627,89.0649,317.8448,88.4026,326.56,92.99" style="stroke:#A9A9A9;stroke-width:1.0;"/><!--MD5=[1cf965f19d4f06bb407a33178dae682c]
link AdditiveGroup to Module{T}--><path codeLine="16" d="M336,119.04 C336,133.38 336,157.46 336,173.78 " fill="none" id="AdditiveGroup-to-Module{T}" style="stroke:#A9A9A9;stroke-width:1.0;"/><polygon fill="#A9A9A9" points="336,178.99,340,169.99,336,173.99,332,169.99,336,178.99" style="stroke:#A9A9A9;stroke-width:1.0;"/><!--MD5=[a109efbecb13a28d09bffe640b8fef06]
link Module{T} to FPModule{T}--><path codeLine="17" d="M314.37,205.04 C287.12,220.19 240.34,246.21 211.13,262.47 " fill="none" id="Module{T}-to-FPModule{T}" style="stroke:#A9A9A9;stroke-width:1.0;"/><polygon fill="#A9A9A9" points="206.59,264.99,216.4,264.1158,210.9608,262.5618,212.5148,257.1226,206.59,264.99" style="stroke:#A9A9A9;stroke-width:1.0;"/><!--MD5=[c55068334bce1cae8ceb3b3c0fba92d8]
link Module{T} to MatSpace{T}--><path codeLine="18" d="M336,205.04 C336,219.38 336,243.46 336,259.78 " fill="none" id="Module{T}-to-MatSpace{T}" style="stroke:#A9A9A9;stroke-width:1.0;"/><polygon fill="#A9A9A9" points="336,264.99,340,255.99,336,259.99,332,255.99,336,264.99" style="stroke:#A9A9A9;stroke-width:1.0;"/><!--MD5=[03a2332ed46cb324cfd14661f7210fef]
link Set to NCRing--><path codeLine="21" d="M288.18,25.88 C337.9,39.22 476.93,76.53 544.78,94.74 " fill="none" id="Set-to-NCRing" style="stroke:#A9A9A9;stroke-width:1.0;"/><polygon fill="#A9A9A9" points="549.93,96.13,542.2794,89.9278,545.1019,94.8301,540.1996,97.6527,549.93,96.13" style="stroke:#A9A9A9;stroke-width:1.0;"/><!--MD5=[8d8b8eee8a7bddd341ee3ec176550552]
link NCRing to MatAlgebra{T}--><path codeLine="22" d="M576.82,119.23 C561.69,149.12 522.82,225.97 505.52,260.16 " fill="none" id="NCRing-to-MatAlgebra{T}" style="stroke:#A9A9A9;stroke-width:1.0;"/><polygon fill="#A9A9A9" points="503.13,264.88,510.7565,258.6481,505.3832,260.4165,503.6149,255.0431,503.13,264.88" style="stroke:#A9A9A9;stroke-width:1.0;"/><!--MD5=[b8f1c4adcedaa0e58fa2bb368fdc45f5]
link NCRing to NCPolyRing{T}--><path codeLine="23" d="M589.11,119.23 C604.06,149.12 642.48,225.97 659.58,260.16 " fill="none" id="NCRing-to-NCPolyRing{T}" style="stroke:#A9A9A9;stroke-width:1.0;"/><polygon fill="#A9A9A9" points="661.94,264.88,661.4802,255.0419,659.6982,260.4107,654.3294,258.6287,661.94,264.88" style="stroke:#A9A9A9;stroke-width:1.0;"/><!--MD5=[ad8fe4b0420a9c7b2b8d8f36b85b30ff]
link NCRing to Ring--><path codeLine="24" d="M616.06,117.64 C667.91,134.33 767.45,166.36 815.99,181.99 " fill="none" id="NCRing-to-Ring" style="stroke:#A9A9A9;stroke-width:1.0;"/><polygon fill="#A9A9A9" points="820.81,183.54,813.4651,176.9785,816.0497,182.0104,811.0178,184.595,820.81,183.54" style="stroke:#A9A9A9;stroke-width:1.0;"/><!--MD5=[3f7eb00af51d06dd0583618c117d905b]
link Ring to Field--><path codeLine="27" d="M841.42,205 C832.53,246.4 803.12,383.29 792.7,431.78 " fill="none" id="Ring-to-Field" style="stroke:#A9A9A9;stroke-width:1.0;"/><polygon fill="#A9A9A9" points="791.64,436.72,797.4306,428.7533,792.6837,431.8302,789.6069,427.0833,791.64,436.72" style="stroke:#A9A9A9;stroke-width:1.0;"/><!--MD5=[6aafd22ffa1a38dbb34cc29fc1522473]
link Ring to PolyRing{T}--><path codeLine="28" d="M856.61,205.04 C872.16,219.88 898.63,245.15 915.71,261.45 " fill="none" id="Ring-to-PolyRing{T}" style="stroke:#A9A9A9;stroke-width:1.0;"/><polygon fill="#A9A9A9" points="919.42,264.99,915.6811,255.8784,915.8068,261.5339,910.1513,261.6596,919.42,264.99" style="stroke:#A9A9A9;stroke-width:1.0;"/><!--MD5=[28664e9ea50f340fa152bbea15189065]
link PolyRing{T} to LaurentPolynomialRing{T}--><path codeLine="29" d="M936.73,291.04 C942.41,305.51 951.99,329.88 958.4,346.2 " fill="none" id="PolyRing{T}-to-LaurentPolynomialRing{T}" style="stroke:#A9A9A9;stroke-width:1.0;"/><polygon fill="#A9A9A9" points="960.28,350.99,960.714,341.1507,958.4526,346.3359,953.2674,344.0745,960.28,350.99" style="stroke:#A9A9A9;stroke-width:1.0;"/><!--MD5=[dda6b58948578ade6de5a9381f775318]
link PolyRing{T} to SeriesRing{T}--><path codeLine="30" d="M969.11,291.04 C1016.71,306.47 1099.06,333.18 1148.94,349.36 " fill="none" id="PolyRing{T}-to-SeriesRing{T}" style="stroke:#A9A9A9;stroke-width:1.0;"/><polygon fill="#A9A9A9" points="1153.96,350.99,1146.633,344.4086,1149.2039,349.4475,1144.165,352.0183,1153.96,350.99" style="stroke:#A9A9A9;stroke-width:1.0;"/><!--MD5=[a75ca58436e9d315295ed38a4e0c65e4]
link Ring to ResRing{T}--><path codeLine="31" d="M867.29,201.36 C907.53,215.8 990.43,245.56 1039.4,263.14 " fill="none" id="Ring-to-ResRing{T}" style="stroke:#A9A9A9;stroke-width:1.0;"/><polygon fill="#A9A9A9" points="1044.32,264.91,1037.1923,258.1133,1039.6119,263.2265,1034.4987,265.6462,1044.32,264.91" style="stroke:#A9A9A9;stroke-width:1.0;"/><!--MD5=[374a9b435c03f0301c5287d6c3b28b7f]
link Field to ResField{T}--><path codeLine="34" d="M760.92,461.3 C719.9,476.35 643.49,504.38 597.64,521.19 " fill="none" id="Field-to-ResField{T}" style="stroke:#A9A9A9;stroke-width:1.0;"/><polygon fill="#A9A9A9" points="592.75,522.99,602.5775,523.6376,597.4427,521.2641,599.8161,516.1293,592.75,522.99" style="stroke:#A9A9A9;stroke-width:1.0;"/><!--MD5=[2cb8c24e136ce8a144127e401e20e3a6]
link NumField{T} to SimpleNumField{T}--><path codeLine="35" d="M711,549.04 C711,563.38 711,587.46 711,603.78 " fill="none" id="NumField{T}-to-SimpleNumField{T}" style="stroke:#A9A9A9;stroke-width:1.0;"/><polygon fill="#A9A9A9" points="711,608.99,715,599.99,711,603.99,707,599.99,711,608.99" style="stroke:#A9A9A9;stroke-width:1.0;"/><!--MD5=[1b133fa95a1a85426612400a06e58390]
link Field to FracField{T}--><path codeLine="36" d="M800.18,463.04 C813.84,477.76 837.03,502.72 852.18,519.04 " fill="none" id="Field-to-FracField{T}" style="stroke:#A9A9A9;stroke-width:1.0;"/><polygon fill="#A9A9A9" points="855.85,522.99,852.6696,513.6688,852.4527,519.3215,846.8,519.1045,855.85,522.99" style="stroke:#A9A9A9;stroke-width:1.0;"/><!--MD5=[f71a4e1bf021d777069f4efb019da335]
link Field to NumField{T}--><path codeLine="37" d="M777.82,463.04 C764.16,477.76 740.97,502.72 725.82,519.04 " fill="none" id="Field-to-NumField{T}" style="stroke:#A9A9A9;stroke-width:1.0;"/><polygon fill="#A9A9A9" points="722.15,522.99,731.2,519.1045,725.5473,519.3215,725.3304,513.6688,722.15,522.99" style="stroke:#A9A9A9;stroke-width:1.0;"/><!--MD5=[12f5773736cab8a240391e96d5926a00]
link Field to FinField--><path codeLine="38" d="M817.18,461.81 C856.56,476.91 928.08,504.35 971.49,521 " fill="none" id="Field-to-FinField" style="stroke:#A9A9A9;stroke-width:1.0;"/><polygon fill="#A9A9A9" points="976.38,522.87,969.4015,515.9201,971.7096,521.0847,966.545,523.3927,976.38,522.87" style="stroke:#A9A9A9;stroke-width:1.0;"/><!--MD5=[feb8ad63bec070658d80f9c8f720b959]
@startuml
skinparam monochrome true
skinparam defaultFontName Monospaced
skinparam defaultFontSize 16
skinparam objectArrowColor DarkGray
skinparam RoundCorner 15

' Ideals
"Set" -down-> "Ideal{T}"

' Groups
"Set" -down-> "Group"
"Group" -down-> "AbstractPermutationGroup"

' Additive groups
"Set" -down-> "AdditiveGroup"
"AdditiveGroup" -down-> "Module{T}"
"Module{T}" -down-> "FPModule{T}"
"Module{T}" -down-> "MatSpace{T}"

' Non-commutative rings
"Set" -down-> "NCRing"
"NCRing" -down- -> "MatAlgebra{T}"
"NCRing" -down- -> "NCPolyRing{T}"
"NCRing" -down-> "Ring"

' Rings
"Ring" -down- - -> "Field"
"Ring" -down-> "PolyRing{T}"
"PolyRing{T}" -down-> "LaurentPolynomialRing{T}"
"PolyRing{T}" -down-> "SeriesRing{T}"
"Ring" -down-> "ResRing{T}"

' Fields
"Field" -down-> "ResField{T}"
"NumField{T}" -down-> "SimpleNumField{T}"
"Field" -down-> "FracField{T}"
"Field" -down-> "NumField{T}"
"Field" -down-> "FinField"

hide members
hide circle

@enduml

@startuml
skinparam monochrome true
skinparam defaultFontName Monospaced
skinparam defaultFontSize 16
skinparam objectArrowColor DarkGray
skinparam RoundCorner 15

"Set" -down-> "Ideal{T}"

"Set" -down-> "Group"
"Group" -down-> "AbstractPermutationGroup"

"Set" -down-> "AdditiveGroup"
"AdditiveGroup" -down-> "Module{T}"
"Module{T}" -down-> "FPModule{T}"
"Module{T}" -down-> "MatSpace{T}"

"Set" -down-> "NCRing"
"NCRing" -down- -> "MatAlgebra{T}"
"NCRing" -down- -> "NCPolyRing{T}"
"NCRing" -down-> "Ring"

"Ring" -down- - -> "Field"
"Ring" -down-> "PolyRing{T}"
"PolyRing{T}" -down-> "LaurentPolynomialRing{T}"
"PolyRing{T}" -down-> "SeriesRing{T}"
"Ring" -down-> "ResRing{T}"

"Field" -down-> "ResField{T}"
"NumField{T}" -down-> "SimpleNumField{T}"
"Field" -down-> "FracField{T}"
"Field" -down-> "NumField{T}"
"Field" -down-> "FinField"

hide members
hide circle

@enduml

PlantUML version 1.2021.8(Sat Jun 26 08:20:59 GMT 2021)
(GPL source distribution)
Java Runtime: OpenJDK Runtime Environment
JVM: OpenJDK 64-Bit Server VM
Default Encoding: UTF-8
Language: en
Country: US
--></g></svg>