<?xml version="1.0" encoding="UTF-8"?>
<svg id="Ebene_1" data-name="Ebene 1" xmlns="http://www.w3.org/2000/svg" viewBox="133.18 74.93 328.64 157.14">
  <defs>
    <style>
      .cls-1 {
        fill: #fab916;
      }

      .cls-2 {
        fill: #d6d6d6;
      }
    </style>
  </defs>
  <path class="cls-2" d="M445.35,162.8c-5.05,0-9.2,3.69-10,8.51h-62.5c-.8-4.81-4.96-8.49-10-8.49s-9.2,3.69-10,8.51h-45.33c-.8-4.81-4.96-8.49-10-8.49s-9.2,3.69-10,8.51h-43.33c-.8-4.81-4.96-8.49-10-8.49-5.05,0-9.2,3.69-10,8.51h-61.5c-.8-4.81-4.96-8.49-10-8.49-5.62,0-10.17,4.56-10.17,10.17,0,5.62,4.56,10.17,10.17,10.17,5.05,0,9.2-3.69,10-8.51h61.5c.8,4.81,4.96,8.49,10,8.49,5.05,0,9.2-3.69,10-8.51h43.33c.8,4.81,4.96,8.49,10,8.49s9.2-3.69,10-8.51h45.33c.8,4.81,4.96,8.49,10,8.49,5.05,0,9.2-3.69,10-8.51h62.5c.8,4.81,4.96,8.49,10,8.49,5.62,0,10.17-4.56,10.17-10.17,0-5.62-4.56-10.17-10.17-10.17Z"/>
  <g>
    <path class="cls-1" d="M147.77,225.04c-1.33-.58-2.38-1.41-3.14-2.48-.76-1.07-1.14-2.32-1.14-3.75h4.36c.09,1.07.52,1.95,1.27,2.64.75.69,1.8,1.04,3.16,1.04s2.5-.34,3.29-1.02c.79-.68,1.18-1.55,1.18-2.62,0-.83-.24-1.51-.73-2.04-.49-.52-1.09-.93-1.82-1.21s-1.73-.59-3.02-.93c-1.62-.43-2.93-.86-3.95-1.3-1.01-.44-1.88-1.13-2.59-2.05-.71-.93-1.07-2.17-1.07-3.72,0-1.43.36-2.68,1.07-3.75.71-1.07,1.71-1.89,3-2.46,1.29-.57,2.77-.86,4.47-.86,2.4,0,4.38.6,5.91,1.8,1.54,1.2,2.39,2.85,2.55,4.95h-4.5c-.07-.9-.5-1.68-1.29-2.32-.79-.64-1.82-.96-3.11-.96-1.17,0-2.12.3-2.86.89s-1.11,1.45-1.11,2.57c0,.76.23,1.39.7,1.88.46.49,1.05.87,1.77,1.16s1.69.6,2.93.93c1.64.45,2.98.91,4.02,1.36,1.04.45,1.92,1.15,2.64,2.09.73.94,1.09,2.2,1.09,3.77,0,1.26-.34,2.45-1.02,3.57s-1.67,2.02-2.97,2.7c-1.3.68-2.83,1.02-4.59,1.02-1.67,0-3.17-.29-4.5-.87Z"/>
    <path class="cls-1" d="M184.78,200.84l-8.21,15.82v9h-4.07v-9l-8.25-15.82h4.54l5.75,12.18,5.75-12.18h4.5Z"/>
    <path class="cls-1" d="M214.85,200.84v24.83h-4.07v-17l-7.57,17h-2.82l-7.61-17v17h-4.07v-24.83h4.39l8.72,19.47,8.68-19.47h4.36Z"/>
    <path class="cls-1" d="M237.61,215.02c.93,1.17,1.39,2.49,1.39,3.97,0,1.26-.33,2.4-.98,3.41-.66,1.01-1.6,1.81-2.84,2.39-1.24.58-2.68.87-4.32.87h-9.93v-24.83h9.47c1.69,0,3.14.29,4.36.86,1.21.57,2.13,1.34,2.75,2.3.62.97.93,2.04.93,3.23,0,1.43-.38,2.62-1.14,3.57-.76.95-1.79,1.66-3.07,2.11,1.33.24,2.47.94,3.39,2.11ZM225,211.27h5.04c1.33,0,2.38-.3,3.13-.91.75-.61,1.13-1.48,1.13-2.63s-.38-1.99-1.13-2.62c-.75-.63-1.79-.95-3.13-.95h-5.04v7.11ZM233.75,221.34c.79-.67,1.18-1.6,1.18-2.79s-.42-2.18-1.25-2.89c-.83-.71-1.94-1.07-3.32-1.07h-5.36v7.75h5.5c1.38,0,2.46-.33,3.25-1Z"/>
    <path class="cls-1" d="M249.09,224.29c-1.94-1.08-3.48-2.6-4.61-4.54-1.13-1.94-1.7-4.13-1.7-6.55s.56-4.61,1.7-6.54c1.13-1.93,2.67-3.43,4.61-4.52,1.94-1.08,4.07-1.62,6.38-1.62s4.47.54,6.41,1.62c1.94,1.08,3.47,2.59,4.59,4.52,1.12,1.93,1.68,4.11,1.68,6.54s-.56,4.61-1.68,6.55c-1.12,1.94-2.65,3.45-4.59,4.54-1.94,1.08-4.08,1.62-6.41,1.62s-4.44-.54-6.38-1.62ZM259.86,221.25c1.29-.75,2.29-1.82,3.02-3.21.73-1.39,1.09-3.01,1.09-4.84s-.36-3.44-1.09-4.82c-.73-1.38-1.73-2.44-3.02-3.18-1.29-.74-2.75-1.11-4.39-1.11s-3.11.37-4.39,1.11c-1.29.74-2.29,1.8-3.02,3.18-.73,1.38-1.09,2.99-1.09,4.82s.36,3.45,1.09,4.84c.73,1.39,1.73,2.46,3.02,3.21s2.75,1.13,4.39,1.13,3.11-.38,4.39-1.13Z"/>
    <path class="cls-1" d="M276.93,222.38h8.39v3.29h-12.47v-24.83h4.07v21.54Z"/>
    <path class="cls-1" d="M293.51,200.84v24.83h-4.07v-24.83h4.07Z"/>
    <path class="cls-1" d="M299.92,206.66c1.13-1.93,2.67-3.43,4.61-4.52,1.94-1.08,4.07-1.62,6.38-1.62,2.64,0,4.99.65,7.05,1.95s3.55,3.14,4.48,5.52h-4.89c-.64-1.31-1.54-2.29-2.68-2.93-1.14-.64-2.46-.96-3.97-.96-1.64,0-3.11.37-4.39,1.11-1.29.74-2.29,1.8-3.02,3.18-.73,1.38-1.09,2.99-1.09,4.82s.36,3.44,1.09,4.82c.73,1.38,1.73,2.45,3.02,3.2s2.75,1.13,4.39,1.13c1.5,0,2.82-.32,3.97-.97,1.14-.64,2.04-1.62,2.68-2.93h4.89c-.93,2.38-2.42,4.21-4.48,5.5s-4.41,1.93-7.05,1.93c-2.33,0-4.46-.54-6.39-1.63-1.93-1.08-3.46-2.59-4.59-4.52-1.13-1.93-1.7-4.11-1.7-6.54s.56-4.61,1.7-6.54Z"/>
    <path class="cls-1" d="M358.23,200.84v3.32h-6.61v21.5h-4.07v-21.5h-6.64v-3.32h17.32Z"/>
    <path class="cls-1" d="M368,224.29c-1.94-1.08-3.48-2.6-4.61-4.54-1.13-1.94-1.7-4.13-1.7-6.55s.56-4.61,1.7-6.54c1.13-1.93,2.67-3.43,4.61-4.52,1.94-1.08,4.07-1.62,6.38-1.62s4.47.54,6.41,1.62c1.94,1.08,3.47,2.59,4.59,4.52,1.12,1.93,1.68,4.11,1.68,6.54s-.56,4.61-1.68,6.55c-1.12,1.94-2.65,3.45-4.59,4.54-1.94,1.08-4.08,1.62-6.41,1.62s-4.44-.54-6.38-1.62ZM378.77,221.25c1.29-.75,2.29-1.82,3.02-3.21.73-1.39,1.09-3.01,1.09-4.84s-.36-3.44-1.09-4.82c-.73-1.38-1.73-2.44-3.02-3.18-1.29-.74-2.75-1.11-4.39-1.11s-3.11.37-4.39,1.11c-1.29.74-2.29,1.8-3.02,3.18-.73,1.38-1.09,2.99-1.09,4.82s.36,3.45,1.09,4.84c.73,1.39,1.73,2.46,3.02,3.21s2.75,1.13,4.39,1.13,3.11-.38,4.39-1.13Z"/>
    <path class="cls-1" d="M396.71,224.29c-1.94-1.08-3.48-2.6-4.61-4.54-1.13-1.94-1.7-4.13-1.7-6.55s.56-4.61,1.7-6.54c1.13-1.93,2.67-3.43,4.61-4.52,1.94-1.08,4.07-1.62,6.38-1.62s4.47.54,6.41,1.62c1.94,1.08,3.47,2.59,4.59,4.52,1.12,1.93,1.68,4.11,1.68,6.54s-.56,4.61-1.68,6.55c-1.12,1.94-2.65,3.45-4.59,4.54-1.94,1.08-4.08,1.62-6.41,1.62s-4.44-.54-6.38-1.62ZM407.48,221.25c1.29-.75,2.29-1.82,3.02-3.21.73-1.39,1.09-3.01,1.09-4.84s-.36-3.44-1.09-4.82c-.73-1.38-1.73-2.44-3.02-3.18-1.29-.74-2.75-1.11-4.39-1.11s-3.11.37-4.39,1.11c-1.29.74-2.29,1.8-3.02,3.18-.73,1.38-1.09,2.99-1.09,4.82s.36,3.45,1.09,4.84c.73,1.39,1.73,2.46,3.02,3.21,1.29.75,2.75,1.13,4.39,1.13s3.11-.38,4.39-1.13Z"/>
    <path class="cls-1" d="M424.56,222.38h8.39v3.29h-12.47v-24.83h4.07v21.54Z"/>
    <path class="cls-1" d="M440.74,225.04c-1.33-.58-2.38-1.41-3.14-2.48-.76-1.07-1.14-2.32-1.14-3.75h4.36c.09,1.07.52,1.95,1.27,2.64.75.69,1.8,1.04,3.16,1.04s2.5-.34,3.29-1.02c.79-.68,1.18-1.55,1.18-2.62,0-.83-.24-1.51-.73-2.04-.49-.52-1.09-.93-1.82-1.21s-1.73-.59-3.02-.93c-1.62-.43-2.93-.86-3.95-1.3-1.01-.44-1.88-1.13-2.59-2.05-.71-.93-1.07-2.17-1.07-3.72,0-1.43.36-2.68,1.07-3.75.71-1.07,1.71-1.89,3-2.46,1.29-.57,2.77-.86,4.47-.86,2.4,0,4.38.6,5.91,1.8,1.54,1.2,2.39,2.85,2.55,4.95h-4.5c-.07-.9-.5-1.68-1.29-2.32-.79-.64-1.82-.96-3.11-.96-1.17,0-2.12.3-2.86.89s-1.11,1.45-1.11,2.57c0,.76.23,1.39.7,1.88.46.49,1.05.87,1.77,1.16s1.69.6,2.93.93c1.64.45,2.98.91,4.02,1.36,1.04.45,1.92,1.15,2.64,2.09.73.94,1.09,2.2,1.09,3.77,0,1.26-.34,2.45-1.02,3.57-.68,1.12-1.67,2.02-2.97,2.7-1.3.68-2.83,1.02-4.59,1.02-1.67,0-3.17-.29-4.5-.87Z"/>
  </g>
  <g>
    <path class="cls-1" d="M188.68,85.5c-4.19-2.34-8.77-3.68-13.72-4.04v16.36c3.23.49,5.88,1.87,7.94,4.16,2.62,2.92,3.93,6.91,3.93,11.96s-1.31,8.88-3.93,11.83c-2.06,2.32-4.71,3.71-7.94,4.21v16.54c4.9-.37,9.46-1.72,13.67-4.08,5-2.8,8.94-6.68,11.83-11.65,2.89-4.97,4.33-10.58,4.33-16.84s-1.45-11.87-4.33-16.84-6.82-8.83-11.78-11.6Z"/>
    <path class="cls-1" d="M161.46,125.82c-2.59-2.92-3.88-6.88-3.88-11.87s1.29-9.04,3.88-11.96c2.02-2.28,4.66-3.66,7.89-4.16v-16.35c-4.86.38-9.39,1.71-13.58,4.03-5,2.77-8.96,6.64-11.87,11.6-2.92,4.97-4.38,10.58-4.38,16.84s1.46,11.87,4.38,16.84c2.92,4.97,6.88,8.85,11.87,11.65,4.19,2.35,8.72,3.7,13.58,4.08v-16.53c-3.23-.5-5.87-1.88-7.89-4.16Z"/>
    <path class="cls-1" d="M231.8,102.97c-.93-.87-1.4-1.91-1.4-3.12,0-1.44.42-2.56,1.26-3.34.84-.78,1.93-1.17,3.25-1.17,1.75,0,3.17.48,4.29,1.44,1.11.96,1.7,2.41,1.76,4.33h19.23c-.3-6.26-2.66-11.12-7.09-14.58-4.42-3.46-10.34-5.19-17.74-5.19-4.58,0-8.67.75-12.28,2.26-3.61,1.51-6.44,3.72-8.49,6.64-2.05,2.92-3.07,6.43-3.07,10.52s.95,7.3,2.84,9.8c1.9,2.5,4.12,4.4,6.68,5.69,2.56,1.3,5.91,2.63,10.07,4.02.8.26,1.54.51,2.25.76v-16.83c-.58-.38-1.1-.78-1.57-1.22Z"/>
    <path class="cls-1" d="M251.4,111.73c-2.62-1.35-5.95-2.72-9.98-4.11-.88-.31-1.69-.61-2.43-.89v16.62c.22.12.43.23.62.34,1.75,1.02,2.62,2.47,2.62,4.33,0,1.44-.53,2.57-1.58,3.39-1.05.81-2.39,1.22-4.02,1.22-1.81,0-3.28-.51-4.42-1.54-1.14-1.02-1.81-2.65-1.99-4.88h-18.87c.36,6.56,2.92,11.6,7.68,15.13,4.75,3.52,10.84,5.28,18.24,5.28,4.88,0,9.11-.87,12.69-2.62,3.58-1.75,6.32-4.12,8.22-7.13,1.9-3.01,2.84-6.41,2.84-10.2s-.95-6.82-2.84-9.26c-1.9-2.44-4.15-4.33-6.77-5.69Z"/>
    <path class="cls-1" d="M305.99,99.85c2.02,1.26,3.6,3.1,4.74,5.51h19.05c-1.57-7.28-5.06-13.05-10.47-17.29-4.9-3.84-10.85-5.93-17.83-6.29v16.39c1.64.28,3.15.84,4.51,1.69Z"/>
    <path class="cls-1" d="M319.31,140.08c5.42-4.24,8.91-10.01,10.47-17.29h-19.05c-1.14,2.41-2.72,4.24-4.74,5.51-1.36.85-2.86,1.41-4.51,1.69v16.39c6.97-.37,12.92-2.45,17.83-6.29Z"/>
    <path class="cls-1" d="M289.19,125.82c-2.44-2.92-3.66-6.85-3.66-11.78s1.22-8.77,3.66-11.69c1.78-2.13,4.01-3.48,6.67-4.05v-16.42c-4.88.41-9.3,1.72-13.22,3.95-4.82,2.74-8.53,6.56-11.15,11.47-2.62,4.91-3.93,10.49-3.93,16.75s1.31,11.94,3.93,16.84c2.62,4.91,6.33,8.73,11.15,11.47,3.92,2.23,8.34,3.54,13.22,3.95v-16.42c-2.66-.57-4.89-1.92-6.67-4.05Z"/>
    <polygon class="cls-1" points="353.94 82.34 330.74 146 349.34 146 353.1 134.61 361.3 134.61 361.3 122.07 357.29 122.07 364.06 101.48 370.92 122.07 366.91 122.07 366.91 134.61 375.01 134.61 378.78 146 397.47 146 374.35 82.34 353.94 82.34"/>
    <path class="cls-1" d="M441.4,121.17c4.57-1.38,8.05-3.72,10.43-7,2.38-3.28,3.57-7.09,3.57-11.42,0-3.85-.9-7.33-2.71-10.43-1.81-3.1-4.49-5.54-8.04-7.31-3.55-1.77-7.89-2.66-13-2.66h-27.9v63.66h17.7v-48.85h8.76c2.35,0,4.14.59,5.37,1.76,1.23,1.17,1.85,2.79,1.85,4.83,0,2.17-.6,3.82-1.81,4.97-1.21,1.14-3.01,1.72-5.42,1.72h-3.14v19.01l8.92,16.57h19.78l-14.36-24.83Z"/>
  </g>
</svg>