<?xml version="1.0" encoding="UTF-8" standalone="no"?><svg xmlns="http://www.w3.org/2000/svg" xmlns:xlink="http://www.w3.org/1999/xlink" contentScriptType="application/ecmascript" contentStyleType="text/css" height="649px" preserveAspectRatio="none" style="width:1387px;height:649px;background:#FFFFFF;" version="1.1" viewBox="0 0 1387 649" width="1387px" zoomAndPan="magnify"><defs><filter height="300%" id="fh3s9elwmawy0" width="300%" x="-1" y="-1"><feGaussianBlur result="blurOut" stdDeviation="2.0"/><feColorMatrix in="blurOut" result="blurOut2" type="matrix" values="0 0 0 0 0 0 0 0 0 0 0 0 0 0 0 0 0 0 .4 0"/><feOffset dx="4.0" dy="4.0" in="blurOut2" result="blurOut3"/><feBlend in="SourceGraphic" in2="blurOut3" mode="normal"/></filter></defs><g><!--MD5=[702da4f58e651341533dbb23931f864c]
class SetElem--><rect fill="#F8F8F8" filter="url(#fh3s9elwmawy0)" height="26" id="SetElem" rx="7.5" ry="7.5" style="stroke:#383838;stroke-width:1.5;" width="76" x="309" y="7"/><text fill="#000000" font-family="monospace" font-size="16" lengthAdjust="spacing" textLength="70" x="312" y="24.8">SetElem</text><!--MD5=[9898cf39a911bc52212bb427773e046f]
class IdealElem{T}--><rect fill="#F8F8F8" filter="url(#fh3s9elwmawy0)" height="26" id="IdealElem{T}" rx="7.5" ry="7.5" style="stroke:#383838;stroke-width:1.5;" width="126" x="138" y="93"/><text fill="#000000" font-family="monospace" font-size="16" lengthAdjust="spacing" textLength="120" x="141" y="110.8">IdealElem{T}</text><!--MD5=[655a3f32e34e37c53bdac68be86c7802]
class Map{D, C, S, T}--><rect fill="#F8F8F8" filter="url(#fh3s9elwmawy0)" height="26" id="Map{D, C, S, T}" rx="7.5" ry="7.5" style="stroke:#383838;stroke-width:1.5;" width="156" x="7" y="351"/><text fill="#000000" font-family="monospace" font-size="16" lengthAdjust="spacing" textLength="150" x="10" y="368.8">Map{D, C, S, T}</text><!--MD5=[ad1e4349a00c5c3b6acfc920773b5b9e]
class SetMap--><rect fill="#F8F8F8" filter="url(#fh3s9elwmawy0)" height="26" id="SetMap" rx="7.5" ry="7.5" style="stroke:#383838;stroke-width:1.5;" width="66" x="198" y="351"/><text fill="#000000" font-family="monospace" font-size="16" lengthAdjust="spacing" textLength="60" x="201" y="368.8">SetMap</text><!--MD5=[58a9343794522a44016b408a7cda00b1]
class IdentityMap--><rect fill="#F8F8F8" filter="url(#fh3s9elwmawy0)" height="26" id="IdentityMap" rx="7.5" ry="7.5" style="stroke:#383838;stroke-width:1.5;" width="116" x="92" y="437"/><text fill="#000000" font-family="monospace" font-size="16" lengthAdjust="spacing" textLength="110" x="95" y="454.8">IdentityMap</text><!--MD5=[974e67f5dbec4638154070298884a7b2]
class FunctionalMap--><rect fill="#F8F8F8" filter="url(#fh3s9elwmawy0)" height="26" id="FunctionalMap" rx="7.5" ry="7.5" style="stroke:#383838;stroke-width:1.5;" width="136" x="243" y="437"/><text fill="#000000" font-family="monospace" font-size="16" lengthAdjust="spacing" textLength="130" x="246" y="454.8">FunctionalMap</text><!--MD5=[df0891dcb9ef0f0cbf3ac6fe1ac587ac]
class FPModuleHomomorphism--><rect fill="#F8F8F8" filter="url(#fh3s9elwmawy0)" height="26" id="FPModuleHomomorphism" rx="7.5" ry="7.5" style="stroke:#383838;stroke-width:1.5;" width="206" x="208" y="523"/><text fill="#000000" font-family="monospace" font-size="16" lengthAdjust="spacing" textLength="200" x="211" y="540.8">FPModuleHomomorphism</text><!--MD5=[a8527c3e711444010714df42bf5efa28]
class GroupElem--><rect fill="#F8F8F8" filter="url(#fh3s9elwmawy0)" height="26" id="GroupElem" rx="7.5" ry="7.5" style="stroke:#383838;stroke-width:1.5;" width="96" x="299" y="93"/><text fill="#000000" font-family="monospace" font-size="16" lengthAdjust="spacing" textLength="90" x="302" y="110.8">GroupElem</text><!--MD5=[f2d786ad92a6c4864ad66c433c5bde6e]
class AbstractPerm--><rect fill="#F8F8F8" filter="url(#fh3s9elwmawy0)" height="26" id="AbstractPerm" rx="7.5" ry="7.5" style="stroke:#383838;stroke-width:1.5;" width="126" x="284" y="179"/><text fill="#000000" font-family="monospace" font-size="16" lengthAdjust="spacing" textLength="120" x="287" y="196.8">AbstractPerm</text><!--MD5=[8f35231af4a9078eebddca51887f6413]
class AdditiveGroupElem--><rect fill="#F8F8F8" filter="url(#fh3s9elwmawy0)" height="26" id="AdditiveGroupElem" rx="7.5" ry="7.5" style="stroke:#383838;stroke-width:1.5;" width="176" x="430" y="93"/><text fill="#000000" font-family="monospace" font-size="16" lengthAdjust="spacing" textLength="170" x="433" y="110.8">AdditiveGroupElem</text><!--MD5=[500d8bd8fc31a930a7942e0e27753eea]
class ModuleElem{T}--><rect fill="#F8F8F8" filter="url(#fh3s9elwmawy0)" height="26" id="ModuleElem{T}" rx="7.5" ry="7.5" style="stroke:#383838;stroke-width:1.5;" width="136" x="447" y="179"/><text fill="#000000" font-family="monospace" font-size="16" lengthAdjust="spacing" textLength="130" x="450" y="196.8">ModuleElem{T}</text><!--MD5=[93785fa03d3dc2b4672963f3b73e55c9]
class FPModuleElem{T}--><rect fill="#F8F8F8" filter="url(#fh3s9elwmawy0)" height="26" id="FPModuleElem{T}" rx="7.5" ry="7.5" style="stroke:#383838;stroke-width:1.5;" width="156" x="271" y="265"/><text fill="#000000" font-family="monospace" font-size="16" lengthAdjust="spacing" textLength="150" x="274" y="282.8">FPModuleElem{T}</text><!--MD5=[90cc10176a8b434ce3ff4ca3ea09aa5c]
class MatElem{T}--><rect fill="#F8F8F8" filter="url(#fh3s9elwmawy0)" height="26" id="MatElem{T}" rx="7.5" ry="7.5" style="stroke:#383838;stroke-width:1.5;" width="106" x="462" y="265"/><text fill="#000000" font-family="monospace" font-size="16" lengthAdjust="spacing" textLength="100" x="465" y="282.8">MatElem{T}</text><!--MD5=[c83e51695945a4a24d7eea26eff66f96]
class NCRingElem--><rect fill="#F8F8F8" filter="url(#fh3s9elwmawy0)" height="26" id="NCRingElem" rx="7.5" ry="7.5" style="stroke:#383838;stroke-width:1.5;" width="106" x="715" y="93"/><text fill="#000000" font-family="monospace" font-size="16" lengthAdjust="spacing" textLength="100" x="718" y="110.8">NCRingElem</text><!--MD5=[20677bfcf96c43e8272146aa4b7b91d2]
class MatAlgElem{T}--><rect fill="#F8F8F8" filter="url(#fh3s9elwmawy0)" height="26" id="MatAlgElem{T}" rx="7.5" ry="7.5" style="stroke:#383838;stroke-width:1.5;" width="136" x="603" y="265"/><text fill="#000000" font-family="monospace" font-size="16" lengthAdjust="spacing" textLength="130" x="606" y="282.8">MatAlgElem{T}</text><!--MD5=[6472abbb30c4a0b8507e69e97f268900]
class NCPolyElem{T}--><rect fill="#F8F8F8" filter="url(#fh3s9elwmawy0)" height="26" id="NCPolyElem{T}" rx="7.5" ry="7.5" style="stroke:#383838;stroke-width:1.5;" width="136" x="774" y="265"/><text fill="#000000" font-family="monospace" font-size="16" lengthAdjust="spacing" textLength="130" x="777" y="282.8">NCPolyElem{T}</text><!--MD5=[344ba750aff02ce8d82ebd3626142b70]
class RingElem--><rect fill="#F8F8F8" filter="url(#fh3s9elwmawy0)" height="26" id="RingElem" rx="7.5" ry="7.5" style="stroke:#383838;stroke-width:1.5;" width="86" x="993" y="179"/><text fill="#000000" font-family="monospace" font-size="16" lengthAdjust="spacing" textLength="80" x="996" y="196.8">RingElem</text><!--MD5=[7757f1648dd37c32a2ec1748f0256268]
class PolyElem{T}--><rect fill="#F8F8F8" filter="url(#fh3s9elwmawy0)" height="26" id="PolyElem{T}" rx="7.5" ry="7.5" style="stroke:#383838;stroke-width:1.5;" width="116" x="1034" y="265"/><text fill="#000000" font-family="monospace" font-size="16" lengthAdjust="spacing" textLength="110" x="1037" y="282.8">PolyElem{T}</text><!--MD5=[93b3a323c853cf347945f67000f27ec4]
class SeriesElem{T}--><rect fill="#F8F8F8" filter="url(#fh3s9elwmawy0)" height="26" id="SeriesElem{T}" rx="7.5" ry="7.5" style="stroke:#383838;stroke-width:1.5;" width="136" x="1237" y="351"/><text fill="#000000" font-family="monospace" font-size="16" lengthAdjust="spacing" textLength="130" x="1240" y="368.8">SeriesElem{T}</text><!--MD5=[83c25d99da7f928acc9c1895d88bf156]
class LaurentPolyElem{T}--><rect fill="#F8F8F8" filter="url(#fh3s9elwmawy0)" height="26" id="LaurentPolyElem{T}" rx="7.5" ry="7.5" style="stroke:#383838;stroke-width:1.5;" width="186" x="1016" y="351"/><text fill="#000000" font-family="monospace" font-size="16" lengthAdjust="spacing" textLength="180" x="1019" y="368.8">LaurentPolyElem{T}</text><!--MD5=[c810f8cfe49a199ec2afe0c06c6092dd]
class ResElem{T}--><rect fill="#F8F8F8" filter="url(#fh3s9elwmawy0)" height="26" id="ResElem{T}" rx="7.5" ry="7.5" style="stroke:#383838;stroke-width:1.5;" width="106" x="1185" y="265"/><text fill="#000000" font-family="monospace" font-size="16" lengthAdjust="spacing" textLength="100" x="1188" y="282.8">ResElem{T}</text><!--MD5=[e7a07049ddfc41b048d3da9843fb0769]
class FieldElem--><rect fill="#F8F8F8" filter="url(#fh3s9elwmawy0)" height="26" id="FieldElem" rx="7.5" ry="7.5" style="stroke:#383838;stroke-width:1.5;" width="96" x="915" y="437"/><text fill="#000000" font-family="monospace" font-size="16" lengthAdjust="spacing" textLength="90" x="918" y="454.8">FieldElem</text><!--MD5=[1304bd6d4b56b5947bb1eb23f673a35f]
class FinFieldElem--><rect fill="#F8F8F8" filter="url(#fh3s9elwmawy0)" height="26" id="FinFieldElem" rx="7.5" ry="7.5" style="stroke:#383838;stroke-width:1.5;" width="126" x="1142" y="523"/><text fill="#000000" font-family="monospace" font-size="16" lengthAdjust="spacing" textLength="120" x="1145" y="540.8">FinFieldElem</text><!--MD5=[b8286995903153867844a6c27f7b66a0]
class ResFieldElem{T}--><rect fill="#F8F8F8" filter="url(#fh3s9elwmawy0)" height="26" id="ResFieldElem{T}" rx="7.5" ry="7.5" style="stroke:#383838;stroke-width:1.5;" width="156" x="609" y="523"/><text fill="#000000" font-family="monospace" font-size="16" lengthAdjust="spacing" textLength="150" x="612" y="540.8">ResFieldElem{T}</text><!--MD5=[193d2c78b2bdd397a03d760f94a49b5d]
class NumFieldElem{T}--><rect fill="#F8F8F8" filter="url(#fh3s9elwmawy0)" height="26" id="NumFieldElem{T}" rx="7.5" ry="7.5" style="stroke:#383838;stroke-width:1.5;" width="156" x="800" y="523"/><text fill="#000000" font-family="monospace" font-size="16" lengthAdjust="spacing" textLength="150" x="803" y="540.8">NumFieldElem{T}</text><!--MD5=[cd84ef9c9d383cfe5e5f1a6d04c4c600]
class SimpleNumFieldElem{T}--><rect fill="#F8F8F8" filter="url(#fh3s9elwmawy0)" height="26" id="SimpleNumFieldElem{T}" rx="7.5" ry="7.5" style="stroke:#383838;stroke-width:1.5;" width="216" x="770" y="609"/><text fill="#000000" font-family="monospace" font-size="16" lengthAdjust="spacing" textLength="210" x="773" y="626.8">SimpleNumFieldElem{T}</text><!--MD5=[b5df2d5b722f63a3731972c103ad4819]
class FracElem{T}--><rect fill="#F8F8F8" filter="url(#fh3s9elwmawy0)" height="26" id="FracElem{T}" rx="7.5" ry="7.5" style="stroke:#383838;stroke-width:1.5;" width="116" x="991" y="523"/><text fill="#000000" font-family="monospace" font-size="16" lengthAdjust="spacing" textLength="110" x="994" y="540.8">FracElem{T}</text><!--MD5=[60b066335d5bfb0ed53201a2a3a318f3]
link SetElem to IdealElem{T}--><path codeLine="9" d="M326.08,33.04 C299.74,48.19 254.51,74.21 226.26,90.47 " fill="none" id="SetElem-to-IdealElem{T}" style="stroke:#A9A9A9;stroke-width:1.0;"/><polygon fill="#A9A9A9" points="221.88,92.99,231.6741,91.9526,226.2097,90.4893,227.673,85.025,221.88,92.99" style="stroke:#A9A9A9;stroke-width:1.0;"/><!--MD5=[32cbe58fb02122746b7329321f9f05b6]
link SetElem to Map{D, C, S, T}--><path codeLine="13" d="M308.9,21.3 C257.48,23.93 166.94,36.85 120,93 C57.09,168.25 73.17,298.9 81.52,345.7 " fill="none" id="SetElem-to-Map{D, C, S, T}" style="stroke:#A9A9A9;stroke-width:1.0;"/><polygon fill="#A9A9A9" points="82.45,350.73,84.7633,341.1567,81.5493,345.8118,76.8941,342.5978,82.45,350.73" style="stroke:#A9A9A9;stroke-width:1.0;"/><!--MD5=[21e2cd7938d11696a417a3ed9dee9970]
link Map{D, C, S, T} to SetMap--><path codeLine="14" d="M163.13,364 C174.71,364 186.29,364 197.86,364 " fill="none" id="Map{D, C, S, T}-SetMap" style="stroke:#A9A9A9;stroke-width:1.0;stroke-dasharray:7.0,7.0;"/><!--MD5=[bde1131222bd2d19bc9c74df6d83c1d0]
link SetMap to IdentityMap--><path codeLine="15" d="M219.39,377.04 C205.2,391.76 181.12,416.72 165.39,433.04 " fill="none" id="SetMap-to-IdentityMap" style="stroke:#A9A9A9;stroke-width:1.0;"/><polygon fill="#A9A9A9" points="161.58,436.99,170.7066,433.2879,165.0507,433.3908,164.9478,427.7349,161.58,436.99" style="stroke:#A9A9A9;stroke-width:1.0;"/><!--MD5=[094a1bc6ebe67292f272be397db07a85]
link SetMap to FunctionalMap--><path codeLine="16" d="M242.46,377.04 C256.48,391.76 280.26,416.72 295.8,433.04 " fill="none" id="SetMap-to-FunctionalMap" style="stroke:#A9A9A9;stroke-width:1.0;"/><polygon fill="#A9A9A9" points="299.56,436.99,296.267,427.708,296.1185,433.3629,290.4636,433.2144,299.56,436.99" style="stroke:#A9A9A9;stroke-width:1.0;"/><!--MD5=[d54f03e8b6d2df544bf0e837a309333c]
link FunctionalMap to FPModuleHomomorphism--><path codeLine="17" d="M311,463.04 C311,477.38 311,501.46 311,517.78 " fill="none" id="FunctionalMap-to-FPModuleHomomorphism" style="stroke:#A9A9A9;stroke-width:1.0;"/><polygon fill="#A9A9A9" points="311,522.99,315,513.99,311,517.99,307,513.99,311,522.99" style="stroke:#A9A9A9;stroke-width:1.0;"/><!--MD5=[827b9fe8c7cdf68220d2cd3d135331e2]
link SetElem to GroupElem--><path codeLine="20" d="M347,33.04 C347,47.38 347,71.46 347,87.78 " fill="none" id="SetElem-to-GroupElem" style="stroke:#A9A9A9;stroke-width:1.0;"/><polygon fill="#A9A9A9" points="347,92.99,351,83.99,347,87.99,343,83.99,347,92.99" style="stroke:#A9A9A9;stroke-width:1.0;"/><!--MD5=[2fae048a88ba0028e6baebf25444afef]
link GroupElem to AbstractPerm--><path codeLine="21" d="M347,119.04 C347,133.38 347,157.46 347,173.78 " fill="none" id="GroupElem-to-AbstractPerm" style="stroke:#A9A9A9;stroke-width:1.0;"/><polygon fill="#A9A9A9" points="347,178.99,351,169.99,347,173.99,343,169.99,347,178.99" style="stroke:#A9A9A9;stroke-width:1.0;"/><!--MD5=[82044e7ca09251f0190cd699de5a6383]
link SetElem to AdditiveGroupElem--><path codeLine="24" d="M371.5,33.04 C402.48,48.26 455.77,74.43 488.82,90.67 " fill="none" id="SetElem-to-AdditiveGroupElem" style="stroke:#A9A9A9;stroke-width:1.0;"/><polygon fill="#A9A9A9" points="493.55,92.99,487.2309,85.4356,489.0608,90.7883,483.7082,92.6183,493.55,92.99" style="stroke:#A9A9A9;stroke-width:1.0;"/><!--MD5=[7561ddc5a4b27b1d8dfef66bb1ec78a4]
link AdditiveGroupElem to ModuleElem{T}--><path codeLine="25" d="M517.57,119.04 C517.06,133.38 516.2,157.46 515.62,173.78 " fill="none" id="AdditiveGroupElem-to-ModuleElem{T}" style="stroke:#A9A9A9;stroke-width:1.0;"/><polygon fill="#A9A9A9" points="515.43,178.99,519.736,170.1323,515.6013,173.9929,511.7407,169.8582,515.43,178.99" style="stroke:#A9A9A9;stroke-width:1.0;"/><!--MD5=[94a3213c5536b93ebb18543b3c24b37e]
link ModuleElem{T} to FPModuleElem{T}--><path codeLine="26" d="M491.22,205.04 C461.14,220.26 409.41,246.43 377.33,262.67 " fill="none" id="ModuleElem{T}-to-FPModuleElem{T}" style="stroke:#A9A9A9;stroke-width:1.0;"/><polygon fill="#A9A9A9" points="372.74,264.99,382.5763,264.4925,377.2006,262.7311,378.962,257.3554,372.74,264.99" style="stroke:#A9A9A9;stroke-width:1.0;"/><!--MD5=[a8b0988c52e6622229d1fafa9da45ba2]
link ModuleElem{T} to MatElem{T}--><path codeLine="27" d="M515,205.04 C515,219.38 515,243.46 515,259.78 " fill="none" id="ModuleElem{T}-to-MatElem{T}" style="stroke:#A9A9A9;stroke-width:1.0;"/><polygon fill="#A9A9A9" points="515,264.99,519,255.99,515,259.99,511,255.99,515,264.99" style="stroke:#A9A9A9;stroke-width:1.0;"/><!--MD5=[7257f7ad5a5507e43bd2832b643dacaa]
link SetElem to NCRingElem--><path codeLine="30" d="M385.1,28.6 C458.93,43.33 621.88,75.85 709.51,93.33 " fill="none" id="SetElem-to-NCRingElem" style="stroke:#A9A9A9;stroke-width:1.0;"/><polygon fill="#A9A9A9" points="714.66,94.36,706.6224,88.6681,709.7576,93.3767,705.0491,96.5119,714.66,94.36" style="stroke:#A9A9A9;stroke-width:1.0;"/><!--MD5=[e34cdcdd9847f81251e3cd0855731ec8]
link NCRingElem to MatAlgElem{T}--><path codeLine="31" d="M761.02,119.23 C743.97,149.12 700.12,225.97 680.61,260.16 " fill="none" id="NCRingElem-to-MatAlgElem{T}" style="stroke:#A9A9A9;stroke-width:1.0;"/><polygon fill="#A9A9A9" points="677.91,264.88,685.8523,259.056,680.3938,260.5405,678.9092,255.082,677.91,264.88" style="stroke:#A9A9A9;stroke-width:1.0;"/><!--MD5=[adc693c774601589ec0c33d87c9740b5]
link NCRingElem to NCPolyElem{T}--><path codeLine="32" d="M773.32,119.23 C786.34,149.12 819.79,225.97 834.67,260.16 " fill="none" id="NCRingElem-to-NCPolyElem{T}" style="stroke:#A9A9A9;stroke-width:1.0;"/><polygon fill="#A9A9A9" points="836.73,264.88,836.7985,255.0314,834.7312,260.2969,829.4656,258.2295,836.73,264.88" style="stroke:#A9A9A9;stroke-width:1.0;"/><!--MD5=[d271a3b885bd44ccdf340d57dd6fb9eb]
link NCRingElem to RingElem--><path codeLine="33" d="M806.4,119.04 C855.75,134.5 941.21,161.29 992.79,177.46 " fill="none" id="NCRingElem-to-RingElem" style="stroke:#A9A9A9;stroke-width:1.0;"/><polygon fill="#A9A9A9" points="997.67,178.99,990.2839,172.475,992.9001,177.4905,987.8847,180.1068,997.67,178.99" style="stroke:#A9A9A9;stroke-width:1.0;"/><!--MD5=[d1ac0d1c94b63bbe3ba4e6221e460eba]
link RingElem to PolyElem{T}--><path codeLine="36" d="M1044.02,205.04 C1053.75,219.63 1070.2,244.3 1081.08,260.62 " fill="none" id="RingElem-to-PolyElem{T}" style="stroke:#A9A9A9;stroke-width:1.0;"/><polygon fill="#A9A9A9" points="1083.99,264.99,1082.3259,255.2827,1081.2165,260.8297,1075.6695,259.7203,1083.99,264.99" style="stroke:#A9A9A9;stroke-width:1.0;"/><!--MD5=[5b31a14d50adb6663d9f589217fe6a4c]
link PolyElem{T} to SeriesElem{T}--><path codeLine="37" d="M1122.52,291.04 C1161.43,306.38 1228.57,332.86 1269.66,349.06 " fill="none" id="PolyElem{T}-to-SeriesElem{T}" style="stroke:#A9A9A9;stroke-width:1.0;"/><polygon fill="#A9A9A9" points="1274.54,350.99,1267.6245,343.9774,1269.8859,349.1626,1264.7007,351.424,1274.54,350.99" style="stroke:#A9A9A9;stroke-width:1.0;"/><!--MD5=[4b9debd476bfd2633ee2931a75cc11c6]
link PolyElem{T} to LaurentPolyElem{T}--><path codeLine="38" d="M1094.44,291.04 C1097.34,305.38 1102.21,329.46 1105.51,345.78 " fill="none" id="PolyElem{T}-to-LaurentPolyElem{T}" style="stroke:#A9A9A9;stroke-width:1.0;"/><polygon fill="#A9A9A9" points="1106.57,350.99,1108.7165,341.3779,1105.5839,346.0882,1100.8736,342.9556,1106.57,350.99" style="stroke:#A9A9A9;stroke-width:1.0;"/><!--MD5=[5cf0f45058ab73fda13da718c67c5b6e]
link RingElem to ResElem{T}--><path codeLine="39" d="M1064.94,205.04 C1101.84,220.38 1165.52,246.86 1204.49,263.06 " fill="none" id="RingElem-to-ResElem{T}" style="stroke:#A9A9A9;stroke-width:1.0;"/><polygon fill="#A9A9A9" points="1209.11,264.99,1202.3486,257.8287,1204.4967,263.0619,1199.2636,265.21,1209.11,264.99" style="stroke:#A9A9A9;stroke-width:1.0;"/><!--MD5=[ef46e00573a0b52bc9ecf440eee44058]
link RingElem to FieldElem--><path codeLine="40" d="M1032.58,205 C1020.77,246.4 981.74,383.29 967.91,431.78 " fill="none" id="RingElem-to-FieldElem" style="stroke:#A9A9A9;stroke-width:1.0;"/><polygon fill="#A9A9A9" points="966.5,436.72,972.8186,429.1652,967.8736,431.9124,965.1264,426.9674,966.5,436.72" style="stroke:#A9A9A9;stroke-width:1.0;"/><!--MD5=[459746cc5c82c82c972ae1be79dc1ca1]
link FieldElem to FinFieldElem--><path codeLine="43" d="M997.67,463.04 C1042.06,478.44 1118.79,505.07 1165.42,521.26 " fill="none" id="FieldElem-to-FinFieldElem" style="stroke:#A9A9A9;stroke-width:1.0;"/><polygon fill="#A9A9A9" points="1170.39,522.99,1163.2012,516.2579,1165.6669,521.3491,1160.5757,523.8148,1170.39,522.99" style="stroke:#A9A9A9;stroke-width:1.0;"/><!--MD5=[220f1a3cc0db3220fd05aeb827ab9288]
link FieldElem to ResFieldElem{T}--><path codeLine="44" d="M923.46,463.04 C872.63,478.5 784.62,505.29 731.5,521.46 " fill="none" id="FieldElem-to-ResFieldElem{T}" style="stroke:#A9A9A9;stroke-width:1.0;"/><polygon fill="#A9A9A9" points="726.47,522.99,736.2449,524.1951,731.2532,521.5336,733.9147,516.542,726.47,522.99" style="stroke:#A9A9A9;stroke-width:1.0;"/><!--MD5=[80b5879b152b965c1f1b3aa4f7397b84]
link FieldElem to NumFieldElem{T}--><path codeLine="45" d="M950.82,463.04 C935.8,477.88 910.23,503.15 893.73,519.45 " fill="none" id="FieldElem-to-NumFieldElem{T}" style="stroke:#A9A9A9;stroke-width:1.0;"/><polygon fill="#A9A9A9" points="890.16,522.99,899.3736,519.5102,893.7169,519.476,893.7512,513.8192,890.16,522.99" style="stroke:#A9A9A9;stroke-width:1.0;"/><!--MD5=[d1aa8e314edff6c74603d9e1aa1ab147]
link NumFieldElem{T} to SimpleNumFieldElem{T}--><path codeLine="46" d="M878,549.04 C878,563.38 878,587.46 878,603.78 " fill="none" id="NumFieldElem{T}-to-SimpleNumFieldElem{T}" style="stroke:#A9A9A9;stroke-width:1.0;"/><polygon fill="#A9A9A9" points="878,608.99,882,599.99,878,603.99,874,599.99,878,608.99" style="stroke:#A9A9A9;stroke-width:1.0;"/><!--MD5=[195ee6b9705a9032db2f5d4086f73958]
link FieldElem to FracElem{T}--><path codeLine="47" d="M975.32,463.04 C990.52,477.88 1016.39,503.15 1033.08,519.45 " fill="none" id="FieldElem-to-FracElem{T}" style="stroke:#A9A9A9;stroke-width:1.0;"/><polygon fill="#A9A9A9" points="1036.7,522.99,1033.0535,513.841,1033.122,519.4975,1027.4655,519.5659,1036.7,522.99" style="stroke:#A9A9A9;stroke-width:1.0;"/><!--MD5=[cd5f181b7f69f857e190965f81f521ba]
@startuml
skinparam monochrome true
skinparam defaultFontName Monospaced
skinparam defaultFontSize 16
skinparam objectArrowColor DarkGray
skinparam RoundCorner 15


' Ideals
"SetElem" -down-> "IdealElem{T}"

' Maps
' NOTE: Identity is 
"SetElem" -down- - - -> "Map{D, C, S, T}"
"Map{D, C, S, T}" .right. "SetMap"
"SetMap" -down-> "IdentityMap"
"SetMap" -down-> "FunctionalMap"
"FunctionalMap" -down-> "FPModuleHomomorphism"

' Groups
"SetElem" -down-> "GroupElem"
"GroupElem" -down-> "AbstractPerm"

' Additive groups
"SetElem" -down-> "AdditiveGroupElem"
"AdditiveGroupElem" -down-> "ModuleElem{T}"
"ModuleElem{T}" -down-> "FPModuleElem{T}"
"ModuleElem{T}" -down-> "MatElem{T}"

' Non-commutative rings
"SetElem" -down-> "NCRingElem"
"NCRingElem" -down- -> "MatAlgElem{T}"
"NCRingElem" -down- -> "NCPolyElem{T}"
"NCRingElem" -down-> "RingElem"

' Rings
"RingElem" -down-> "PolyElem{T}"
"PolyElem{T}" -down-> "SeriesElem{T}"
"PolyElem{T}" -down-> "LaurentPolyElem{T}"
"RingElem" -down-> "ResElem{T}"
"RingElem" -down- - -> "FieldElem"

' Fields
"FieldElem" -down-> "FinFieldElem"
"FieldElem" -down-> "ResFieldElem{T}"
"FieldElem" -down-> "NumFieldElem{T}"
"NumFieldElem{T}" -down-> "SimpleNumFieldElem{T}"
"FieldElem" -down-> "FracElem{T}"

hide members
hide circle

@enduml

@startuml
skinparam monochrome true
skinparam defaultFontName Monospaced
skinparam defaultFontSize 16
skinparam objectArrowColor DarkGray
skinparam RoundCorner 15


"SetElem" -down-> "IdealElem{T}"

"SetElem" -down- - - -> "Map{D, C, S, T}"
"Map{D, C, S, T}" .right. "SetMap"
"SetMap" -down-> "IdentityMap"
"SetMap" -down-> "FunctionalMap"
"FunctionalMap" -down-> "FPModuleHomomorphism"

"SetElem" -down-> "GroupElem"
"GroupElem" -down-> "AbstractPerm"

"SetElem" -down-> "AdditiveGroupElem"
"AdditiveGroupElem" -down-> "ModuleElem{T}"
"ModuleElem{T}" -down-> "FPModuleElem{T}"
"ModuleElem{T}" -down-> "MatElem{T}"

"SetElem" -down-> "NCRingElem"
"NCRingElem" -down- -> "MatAlgElem{T}"
"NCRingElem" -down- -> "NCPolyElem{T}"
"NCRingElem" -down-> "RingElem"

"RingElem" -down-> "PolyElem{T}"
"PolyElem{T}" -down-> "SeriesElem{T}"
"PolyElem{T}" -down-> "LaurentPolyElem{T}"
"RingElem" -down-> "ResElem{T}"
"RingElem" -down- - -> "FieldElem"

"FieldElem" -down-> "FinFieldElem"
"FieldElem" -down-> "ResFieldElem{T}"
"FieldElem" -down-> "NumFieldElem{T}"
"NumFieldElem{T}" -down-> "SimpleNumFieldElem{T}"
"FieldElem" -down-> "FracElem{T}"

hide members
hide circle

@enduml

PlantUML version 1.2021.8(Sat Jun 26 08:20:59 GMT 2021)
(GPL source distribution)
Java Runtime: OpenJDK Runtime Environment
JVM: OpenJDK 64-Bit Server VM
Default Encoding: UTF-8
Language: en
Country: US
--></g></svg>